<svg xmlns="http://www.w3.org/2000/svg" xmlns:xlink="http://www.w3.org/1999/xlink" width="80" height="80" version="1.1" viewBox="0 0 80 80"><title>frame-io-mark-purple</title><desc>Created with Sketch.</desc><g id="frame-io-mark-purple" fill="none" fill-rule="evenodd" stroke="none" stroke-width="1"><g id="Group-20-Copy" fill="#5952FF" transform="translate(9.000000, 8.000000)"><path id="Fill-1" d="M58.7873932,28.7969458 C57.0345353,28.7969458 55.6134259,30.2264642 55.6134259,31.9900043 C55.6134259,33.7534056 57.0345353,35.1830629 58.7873932,35.1830629 C60.5402511,35.1830629 61.9613604,33.7534056 61.9613604,31.9900043 C61.9613604,30.2264642 60.5402511,28.7969458 58.7873932,28.7969458 Z M12.7764601,31.9305857 C12.7732861,21.4760954 10.264472,11.0220217 5.24877582,1.49213015 C4.52869925,0.123557484 2.84221866,-0.398021692 1.48307069,0.326524946 C0.123094729,1.05093275 -0.395641916,2.74700217 0.324434651,4.11488069 C4.91261129,12.8329024 7.20545762,22.3966681 7.20393964,31.960295 C7.20545762,41.5239219 4.91261129,51.0876876 0.324434651,59.8055705 C-0.395641916,61.1735879 0.123094729,62.8697961 1.48307069,63.5939262 C2.84221866,64.3186117 4.52869925,63.7970325 5.24877582,62.4284599 C10.264472,52.8984295 12.7732861,42.4446334 12.7764601,31.9900043 L12.7768741,31.9900043 C12.7768741,31.9801475 12.7765981,31.9701518 12.7765981,31.960295 C12.7765981,31.9504382 12.7768741,31.9405813 12.7768741,31.9305857 L12.7764601,31.9305857 Z M38.2583111,31.9305857 C38.2567931,26.8139176 37.6629852,21.6975271 36.4756455,16.7230195 C36.1165732,15.2178395 34.6125267,14.2904642 33.1164842,14.651974 C31.6201656,15.0133449 30.6984731,16.5264382 31.0578214,18.0316182 C32.1451122,22.5876963 32.6879986,27.2739957 32.6871706,31.960295 C32.6879986,36.6465944 32.1451122,41.3328937 31.0578214,45.8889718 C30.6984731,47.3942907 31.6201656,48.9072451 33.1164842,49.2686161 C34.6125267,49.629987 36.1165732,48.7027505 36.4756455,47.1975705 C37.6629852,42.2232017 38.2567931,37.1065336 38.2583111,31.9900043 L38.2587251,31.9900043 C38.2587251,31.9801475 38.2584491,31.9701518 38.2584491,31.960295 C38.2584491,31.9504382 38.2587251,31.9405813 38.2587251,31.9305857 L38.2583111,31.9305857 Z M50.1449564,31.9305857 C50.1617922,29.6740651 50.0043358,27.4158785 49.6707933,25.1712972 C49.4379897,23.6040607 47.957127,22.5350803 46.3947071,22.8321735 C44.952898,23.1063601 43.9540643,24.5975184 44.1686521,26.0579957 C44.4554131,28.0082603 44.5889957,29.9703254 44.5721599,31.9305857 C44.5721599,31.9405813 44.5720219,31.9504382 44.5721599,31.960295 C44.5720219,31.9701518 44.5721599,31.9801475 44.5721599,31.9900043 C44.5889957,33.9504035 44.4554131,35.9124685 44.1686521,37.8627332 C43.9489583,39.3584729 44.9178463,40.8075662 46.3947071,41.0884165 C47.957127,41.3856486 49.4379897,40.3166681 49.6707933,38.7492928 C50.0043358,36.5048503 50.1617922,34.2465249 50.1449564,31.9900043 C50.1450944,31.9801475 50.1448184,31.9701518 50.1449564,31.960295 C50.1448184,31.9504382 50.1450944,31.9405813 50.1449564,31.9305857 Z M25.7187945,31.9511323 C25.7187945,31.9541866 25.7187945,31.9572408 25.7187945,31.960295 C25.7187945,31.9634881 25.7187945,31.9665423 25.7187945,31.9695965 C25.7187945,40.0727462 24.1558226,47.9770933 21.0734865,55.4632885 C20.4847845,56.8933623 18.8547454,57.5719566 17.433498,56.980269 C16.0116987,56.3877484 15.3367477,54.748321 15.9254496,53.3182473 C18.7239227,46.5218915 20.1440661,39.3459783 20.146688,31.9900043 L20.14655,31.9900043 C20.14655,31.9801475 20.146688,31.9701518 20.146688,31.960295 C20.146688,31.9504382 20.14655,31.9405813 20.14655,31.9305857 L20.146688,31.9305857 C20.1440661,24.5746117 18.7239227,17.3986985 15.9254496,10.6023427 C15.3367477,9.17240781 16.0116987,7.53298048 17.433498,6.94032104 C18.8547454,6.34877223 20.4847845,7.02722777 21.0734865,8.45744035 C24.1558226,15.9434967 25.7187945,23.8479826 25.7187945,31.9511323 Z"/></g></g></svg>